# xmcd CD database file
# Generated: Tue Aug 20 14:04:10 2002 by KSCD
# 
# Track frame offsets:
#       150
#       22292
#       38762
#       70837
#
# Disc length: 1227 seconds
#
# Revision: 1
# Processed by: cddbd v1.4PL0 Copyright (c) Steve Scherf et al.
# Submitted via: Kscd 1.3.3
#
DISCID=3104c904
DTITLE=Luther Vandross - Always And Forever
DYEAR=1900
DGENRE=
TTITLE0=Always And Forever (Album Version)
TTITLE1=So Amazing
TTITLE2=A House Is Not A Home
TTITLE3=Little Miracles (Happen Every Day)
EXTD=
EXTT0=
EXTT1=
EXTT2=
EXTT3=
PLAYORDER=
